<svg height="512" viewBox="0 0 512 512" width="512" xmlns="http://www.w3.org/2000/svg"><g id="Flat"><g><g fill="#fbb8b0"><path d="m283.134 404.8a51.64 51.64 0 0 0 28.79-25.966l.066-.132 46.979-91.746-51.579-25.228-66.785 136.543 3.593 1.757a59.743 59.743 0 0 0 38.936 4.772z"/><path d="m368.876 302.712-42.613 83.221a67.525 67.525 0 0 1 -37.387 33.8l-5.152 10.534 3.593 1.757a60 60 0 0 0 80.261-27.536l40.422-82.64z"/></g><path d="m360.605 332.763-259.34 73a10 10 0 0 1 -12.335-6.913l-40.325-143.25 264 .4z" fill="#fac850"/><path d="m312.605 256-264-.4 11.373 40.4h277.639z" fill="#ffa852"/><g><rect fill="#fa7d29" height="256" rx="10" width="400" x="24.605" y="24"/><path d="m64 144h176v96h-176z" fill="#fac850"/><path d="m148 104a20 20 0 0 0 -20 20 20 20 0 0 0 -20-20h-28v20a20 20 0 0 0 20 20h56a20 20 0 0 0 20-20v-20z" fill="#fffefd"/><path d="m240 184h-120v-40h-16v40h-40v16h40v40h16v-40h120z" fill="#fa7d29"/><g fill="#fffefd"><path d="m308 56h76a0 0 0 0 1 0 0v12a20 20 0 0 1 -20 20h-76a0 0 0 0 1 0 0v-12a20 20 0 0 1 20-20z"/><path d="m56 56h56v16h-56z"/><path d="m128 56h120v16h-120z"/><g><path d="m280 120h32v16h-32z"/><path d="m328 120h64v16h-64z"/></g><g><path d="m360 160h32v16h-32z"/><path d="m280 160h64v16h-64z"/></g></g></g><path d="m360 488v-120l-49.1-79.939a60 60 0 0 1 15.6-81.27l9.5-6.791 64 80h14.605a10 10 0 0 0 10-10v-166h15a20 20 0 0 1 19.612 16.078l28.783 143.922-24 112v112z" fill="#ffd4cf"/></g></g></svg>